<svg overflow="visible" style="display: block;" viewBox="0 0 74.2278 96.0059" fill="none" xmlns="http://www.w3.org/2000/svg">
<g id="Etsy" filter="url(#filter0_d_0_2243)">
<path d="M9.744 17.808C9.744 11.8699 14.5578 7.056 20.496 7.056H53.7318C59.6699 7.056 64.4838 11.8698 64.4838 17.808V72.8219C64.4838 78.7601 59.6699 83.5739 53.7318 83.5739H20.496C14.5578 83.5739 9.744 78.7601 9.744 72.8219V17.808Z" fill="var(--fill-0, white)"/>
<path d="M53.7313 6.88803C59.7622 6.88803 64.6522 11.777 64.6522 17.808V72.8216C64.6522 78.8526 59.7623 83.7415 53.7313 83.7415H20.496C14.465 83.7415 9.57603 78.8526 9.57603 72.8216V17.808C9.57607 11.777 14.465 6.88806 20.496 6.88803H53.7313Z" stroke="var(--stroke-0, black)" stroke-width="0.336"/>
<path d="M53.7313 6.88803C59.7622 6.88803 64.6522 11.777 64.6522 17.808V72.8216C64.6522 78.8526 59.7623 83.7415 53.7313 83.7415H20.496C14.465 83.7415 9.57603 78.8526 9.57603 72.8216V17.808C9.57607 11.777 14.465 6.88806 20.496 6.88803H53.7313Z" stroke="url(#paint0_linear_0_2243)" stroke-width="0.336"/>
<path id="Vector" d="M21.3235 42.739V37.4243C21.3235 37.2288 21.3457 37.1085 21.6706 37.1085H26.1014C26.8768 37.1085 27.2977 37.7776 27.6078 39.0405L27.8589 40.0478H28.6122C28.7451 37.1912 28.8632 35.9508 28.8632 35.9508C28.8632 35.9508 26.9654 36.1689 25.8429 36.1689H20.1715L17.1365 36.0711V36.898L18.1629 37.0935C18.8792 37.2288 19.0491 37.3867 19.1082 38.0557C19.1082 38.0557 19.1672 40.0253 19.1672 43.2728C19.1672 46.5203 19.1082 48.4748 19.1082 48.4748C19.1082 49.0687 18.8792 49.2792 18.1629 49.422L17.1365 49.6175V50.4444L20.1715 50.3466H25.2374C26.382 50.3466 29.0331 50.4444 29.0331 50.4444C29.0922 49.7377 29.4762 46.5278 29.5352 46.167H28.8189L28.0657 47.9185C27.4675 49.2942 26.5961 49.3919 25.6288 49.3919H22.7488C21.7814 49.3919 21.3162 49.001 21.3162 48.1516V43.6637C21.3162 43.6637 23.4282 43.6637 24.1592 43.7238C24.6983 43.7614 25.0306 43.9193 25.2078 44.6861L25.4368 45.7084H26.2712L26.2122 43.13L26.3303 40.5289H25.4958L25.2226 41.6716C25.0454 42.4233 24.9346 42.5586 24.174 42.6338C23.3248 42.7315 21.3088 42.7165 21.3088 42.7165V42.739H21.3235ZM32.7992 37.973C32.526 39.1908 32.2602 40.138 31.3075 40.7695C30.7242 41.1604 30.1482 41.3032 29.9119 41.3183V42.07H31.6325V48.114C31.6325 49.8054 32.7328 50.6323 34.2023 50.6323C35.3469 50.6323 36.5211 50.1361 36.9272 49.1138L36.5211 48.5801C36.3291 48.9183 35.7088 49.407 34.9334 49.407C34.0842 49.407 33.6189 48.8131 33.6189 47.3171V41.9798L36.4842 42.1978L36.6392 40.8597L33.6189 40.98V37.9881L32.7845 37.9655L32.7992 37.973ZM38.9137 47.272L38.1752 47.2946C38.2122 47.7306 38.2343 48.2793 38.2343 48.7905C38.2343 49.3017 38.2122 49.8129 38.1752 50.0534C38.1752 50.0534 39.6448 50.6022 41.1365 50.6022C43.1525 50.6022 44.7549 49.6175 44.7549 47.6855C44.7549 44.3778 39.8811 44.8665 39.8811 42.6413C39.8811 41.7167 40.6934 41.3634 41.5869 41.3634C42.2811 41.3634 42.8645 41.619 42.9826 41.9948L43.47 43.4757L44.1863 43.4382C44.2454 42.6488 44.2823 41.7468 44.4005 41.0176C43.7802 40.7394 42.4878 40.5816 41.6755 40.5816C39.7777 40.5816 38.2491 41.431 38.2491 43.3179C38.2491 46.6105 43.0122 45.9339 43.0122 48.362C43.0122 49.2265 42.4878 49.8354 41.3063 49.8354C40.2208 49.8354 39.6817 49.2641 39.4675 48.6928L38.9285 47.272H38.9137ZM50.574 49.5498C49.4515 52.7371 48.0854 53.5641 46.8448 53.5641C46.3205 53.5641 46.0694 53.331 45.9955 52.9552L45.7075 51.4216L44.8952 51.4592C44.7401 52.3613 44.5851 53.3686 44.3709 54.1955C44.8509 54.5714 45.6632 54.7668 46.3057 54.7668C47.6423 54.7668 49.6657 54.5864 51.5192 50.1061L54.6282 42.6338C54.8792 42.0249 54.9752 41.9648 55.7063 41.6716L56.1125 41.5137V40.8221L54.2811 40.9199L52.3094 40.8221V41.5137L52.8115 41.6716C53.3137 41.8295 53.5426 42.0249 53.5426 42.3782C53.5426 42.5586 53.4835 42.7315 53.3875 43.0097C53.0995 43.7539 51.3051 48.2042 50.8177 49.1439L51.2977 48.9634C50.4485 46.821 49.1562 43.2427 48.9642 42.6338C48.9272 42.5135 48.9051 42.4158 48.9051 42.3181C48.9051 42.0023 49.1192 41.7467 49.5845 41.649L50.2195 41.5137V40.8221L47.5758 40.9199L45.4712 40.8221V41.5137L45.8183 41.634C46.2983 41.7918 46.4165 41.9272 46.7045 42.6188C48.3069 46.3549 49.0601 48.3996 50.0866 51.0758L50.574 49.5648V49.5498Z" fill="var(--fill-0, #F27224)"/>
</g>
<defs>
<filter id="filter0_d_0_2243" x="4.17233e-07" y="-5.96046e-08" width="74.2278" height="96.0059" filterUnits="userSpaceOnUse" color-interpolation-filters="sRGB">
<feFlood flood-opacity="0" result="BackgroundImageFix"/>
<feColorMatrix in="SourceAlpha" type="matrix" values="0 0 0 0 0 0 0 0 0 0 0 0 0 0 0 0 0 0 127 0" result="hardAlpha"/>
<feOffset dy="2.688"/>
<feGaussianBlur stdDeviation="4.704"/>
<feColorMatrix type="matrix" values="0 0 0 0 0 0 0 0 0 0 0 0 0 0 0 0 0 0 0.08 0"/>
<feBlend mode="normal" in2="BackgroundImageFix" result="effect1_dropShadow_0_2243"/>
<feBlend mode="normal" in="SourceGraphic" in2="effect1_dropShadow_0_2243" result="shape"/>
</filter>
<linearGradient id="paint0_linear_0_2243" x1="9.60493" y1="45.315" x2="64.6173" y2="45.315" gradientUnits="userSpaceOnUse">
<stop stop-color="#4DAEFF"/>
<stop offset="0.15" stop-color="#6C9EFF"/>
<stop offset="0.24" stop-color="#7B98FF"/>
<stop offset="0.47" stop-color="#CBA0F6"/>
<stop offset="0.64" stop-color="#E9A8B1"/>
<stop offset="0.81" stop-color="#F8AC8E"/>
<stop offset="0.97" stop-color="#FBB647"/>
</linearGradient>
</defs>
</svg>
